<?xml version="1.0" encoding="UTF-8"?>
<svg xmlns="http://www.w3.org/2000/svg" width="193.743" height="66.371" viewBox="0 0 193.743 66.371">
  <g id="logo_crest_horizontal" transform="translate(-385.6 -340.8)">
    <g id="Groupe_661" data-name="Groupe 661" transform="translate(385.6 340.8)">
      <g id="Groupe_660" data-name="Groupe 660">
        <g id="XMLID_00000013892715076617913940000013359759954072209343_">
          <g id="XMLID_00000139277773628053826630000011566762806724869273_">
            <g id="XMLID_00000160912051494731322780000002457230603749558717_">
              <path id="XMLID_00000155114220290322027240000015196331895154242439_" d="M451.7,425.3" transform="translate(-400.982 -360.463)" fill="#102851"></path>
              <g id="XMLID_00000084505672296990825210000000007767742735543442_">
                <g id="Groupe_658" data-name="Groupe 658">
                  <path id="Tracé_10316" data-name="Tracé 10316" d="M442.15,368.883l-.384-28.083-56.166.153.307,29.925a40.769,40.769,0,0,0,.614,5.678,36.018,36.018,0,0,0,16.343,25.014,35.453,35.453,0,0,0,11.586,5.6,37.991,37.991,0,0,0,11.126-5.218c.844-.537,2.916-1.688,9.131-8.747a31.7,31.7,0,0,0,6.369-13.735C442.3,371.952,442.15,368.883,442.15,368.883ZM440.692,341.8l.23,9.208-54.171.46-.077-9.208ZM433.4,393.206c-1.228,1.458-8.517,9.9-18.876,12.891a40.474,40.474,0,0,1-22.712-17.571s4.757.614,5.755.844a16.223,16.223,0,0,0,4.757.307,42.058,42.058,0,0,0,7.443-1.228c3.223-.921,7.98-.23,8.9-.23.844,0,6.752.614,8.977.614a35.211,35.211,0,0,0,9.361-1A40.591,40.591,0,0,1,433.4,393.206Zm-36.83-35.066a2.459,2.459,0,0,1,1.458.153c.307.153,0,.307,0,.307l-1,.691-.691.384s-.153-.153-.153-.844S396.572,358.141,396.572,358.141Zm-.307-1.228a.944.944,0,0,1,.153-.384c.46-.077.537.153.537.153s.154.307-.23.46S396.265,357.067,396.265,356.913Zm3.836,1.151c.921.077,1.458.307,1.535.691s-.077,1.151-1.074,1-.767-.46-.844-.537a2.513,2.513,0,0,0-.921-.691A1.924,1.924,0,0,1,400.1,358.064Zm.46-1.688c.844.077.614.614.614.614s-.23.153-.384.23a.5.5,0,0,1-.767-.307C399.8,356.453,400.562,356.376,400.562,356.376Zm-3.453,30.845c-.154-.077-.614,0-.614-.46,0,0,0-.614,1-.614a13.81,13.81,0,0,0,2.225-.077h1.458s.384,0,.384.153.077.614-.307.691A27.756,27.756,0,0,1,397.109,387.222Zm2.839,1.3a.464.464,0,0,1-.46.23c-.23,0-1.228.077-1.151-.384,0,0,0-.23.384-.23a2.033,2.033,0,0,1,1,.077C399.872,388.219,400.025,388.373,399.948,388.526Zm-4.757-24.4a12.8,12.8,0,0,1,1.458.077c.537.077.23.154.307.691.077.46-.153.307-.307.384a5.786,5.786,0,0,1-1.688.077c-.46-.077-.384-.767-.384-1C394.577,364.2,395.191,364.126,395.191,364.126Zm-.537-1.535c.153-.307.384-.23.384-.23a.531.531,0,0,1,.614.307,3.892,3.892,0,0,1-.153.691c-.077.153-.46.077-.767,0C394.5,363.359,394.577,362.9,394.654,362.591Zm8.824-2.225c.46.23.153.921,0,1.074a7.906,7.906,0,0,1-1.918,0,.538.538,0,0,1-.537-.691c.077-.384.537-.46.537-.46C401.943,360.366,403.018,360.136,403.478,360.366Zm-1.381-2.225c-.077-.23.614-.46.614-.46.921.077.921.46.921.46v1.074s0,.307-.614.307c-.614.077-.614-.23-.614-.23S402.174,358.448,402.1,358.141Zm-1.151,6.292c0-.307.46-.307.46-.307s.921-.077,1.611-.077.614.384.614.767-.46.537-.46.537-.921,0-1.611-.077-.537-.307-.537-.307A.718.718,0,0,1,400.946,364.433Zm1.381-1.611c0-.307.384-.46.384-.46,1.151-.077.921.691.921,1s-.537.153-.844.153A.94.94,0,0,1,402.327,362.821Zm1.228,4.45a.7.7,0,0,1-.767.23c-.384-.077-.307-.46-.307-.691s.384-.46.384-.46l.307-.153a.917.917,0,0,1,.614.307C403.938,366.735,403.708,367.042,403.555,367.272Zm.23,1.228c0,.307-.077.844-.307,1a5.961,5.961,0,0,1-1.228.153,4.054,4.054,0,0,1-1-.077c-.23-.077-.46-.767-.46-.767s-.154-.614.384-.614,2.148-.077,2.148-.077S403.785,368.193,403.785,368.5Zm-2.379-5.985a.783.783,0,0,1-.153.691.406.406,0,0,1-.614.077.8.8,0,0,1-.077-.844c.154-.307.384-.23.384-.23S401.406,362.361,401.406,362.515Zm-.767,3.99a.566.566,0,0,1,.844.153,1.805,1.805,0,0,1-.153.614.44.44,0,0,1-.537.153c-.23,0-.307-.384-.307-.614A.536.536,0,0,1,400.639,366.5Zm.614,3.99c.46,0,.23.537.23.691s-.077.23-.46.307a4.172,4.172,0,0,1-1.381,0,10.014,10.014,0,0,0-1.3-.077s-1,.077-1.458.077c-.46-.077-.46-.384-.46-.767s.23-.384.23-.384S400.793,370.494,401.253,370.494Zm2.148,6.6s-1.611.23-2.148.23c-.537-.077-.537-.307-.46-.844.077-.46.614-.384.844-.46,0,0,1.151,0,1.841-.077.691,0,.614.537.537.767S403.4,377.093,403.4,377.093Zm.307,1.765a1.016,1.016,0,0,1-.691.537c-.307.077-.384-.384-.384-.767s.46-.614.46-.614c.23-.153.691-.23.767-.153C404.015,377.861,403.785,378.628,403.708,378.858Zm-6.522,4.6s-.537-.077-.46-.537c0,0-.077-.537.384-.614s2.148-.077,2.148-.077l2-.153s.46,0,.537.307.384.691-.307.844A22.6,22.6,0,0,1,397.186,383.462Zm2.455,2a2.127,2.127,0,0,1-1,0c-.46-.077-.614-.307-.614-.844,0-.46.307-.537.307-.537.691-.46,1.611.537,1.688.844C400.179,385.227,399.872,385.38,399.642,385.457Zm-2.455-.23a.336.336,0,0,1-.307.23h-1c-.691.077-1-.153-1.074-.384a.852.852,0,0,1,.077-.844.284.284,0,0,1,.46-.153s.614-.077,1.381-.153c.691-.077.537.614.537.614A3.373,3.373,0,0,1,397.186,385.227Zm-2.532-8.517s0-.691.46-.691c.46-.077,1.918-.153,1.918-.153a.375.375,0,0,1,.46.384c-.077.537-.153.614-.46.767a6,6,0,0,1-1.995.153C394.808,377.016,394.424,376.863,394.654,376.71Zm.153-2.379s.384-.23.614-.153a1.547,1.547,0,0,1,.691.537c.153.23,0,.46-.077.614-.153.153-.307.307-1.074,0C394.347,375.022,394.731,374.638,394.808,374.331Zm2.685,5.908a2.37,2.37,0,0,1-.077.691,1.016,1.016,0,0,1-1.151.537,3.751,3.751,0,0,0-1.228-.077.483.483,0,0,1-.23-.537s-.153-.691.077-.767,1.228,0,1.611-.077A1.391,1.391,0,0,1,397.493,380.239ZM396.035,383a.459.459,0,0,1-.23.46c-.153.23-.307.154-.614.077-.23-.077-.384-.307-.384-.767a1.008,1.008,0,0,1,.23-.691c.384-.153.384.077.691.153C396.112,382.464,395.958,382.771,396.035,383Zm3.99-1.995a3.583,3.583,0,0,1-2.379.307s-.307-.23.23-.537,1.381-.767,1.381-.767.537-.23.691.153C400.255,380.546,400.332,380.93,400.025,381.006Zm-2.762-1.765s-.691.153-.691-.46c0,0,.077-.384.384-.46a19.588,19.588,0,0,1,2.609-.307l1.765-.077s.537,0,.537.46,0,.767-.614.844S397.263,379.242,397.263,379.242Zm1.151-3.376c.921-.307,1.381.691,1.611.767.153.153.077.23,0,.307a3.175,3.175,0,0,1-1.228.307c-.691.077-.767-.23-.921-.691C397.8,376.1,398.414,375.866,398.414,375.866Zm3.453-1.151a.74.74,0,0,1-.844.614c-.46.077-3.836,0-3.836,0s-.537-.077-.384-.384a1.105,1.105,0,0,1,.844-.614c.614,0,3.606-.23,3.606-.23S402.02,374.254,401.867,374.715Zm-2.762-1.381c-.767.077-1,0-1.151-.46s.691-.614.691-.614a4.478,4.478,0,0,1,1.151.153C400.255,372.643,399.872,373.257,399.1,373.333Zm-4.374-5.064c.307,0,1.765-.23,1.765-.23s.537,0,.537.384.077.921-.384,1a15.642,15.642,0,0,1-1.918,0s-.384,0-.23-.614C394.5,368.806,394.424,368.346,394.731,368.269Zm1.611-1.458a.847.847,0,0,1,.077-.537,1.18,1.18,0,0,1,.614-.153c.384,0,.23.307.307.46a.573.573,0,0,1-.46.614C396.419,367.425,396.419,367.042,396.342,366.811Zm3.76-5.218a.59.59,0,0,1-.767-.077c-.153-.23.307-.537.307-.537.153-.23.614-.23.691,0C400.486,361.133,400.332,361.44,400.1,361.594Zm-.307,6.752s.307,0,.307.46-.077.537-.384.691a5.6,5.6,0,0,1-1.611,0c-.077,0-.537,0-.307-.691a.75.75,0,0,1,.691-.537C399.028,368.269,399.8,368.346,399.8,368.346Zm-1.995-6.752a.505.505,0,0,1-.691-.23c-.23-.23.23-.46.23-.46.23-.153.691.077.921.307C398.414,361.364,398.107,361.44,397.8,361.594Zm-.153.614c.153.077.077.46.077.537a3.352,3.352,0,0,1-.537.614.4.4,0,0,1-.614-.077,1.075,1.075,0,0,1,0-.844.6.6,0,0,1,.307-.23A2.444,2.444,0,0,1,397.647,362.208Zm-2.839,3.99s0-.153.46-.153c.46.077.614.614.614.844,0,.307-.077.384-.537.537-.46.077-.614-.077-.767-.537A.5.5,0,0,1,394.808,366.2Zm-.23,4.374c.23-.23.153-.307.537-.307.384-.077.46,0,.537.153.077.077.077.46.077.537s-.23.46-.307.384-.384.307-.384.307-.614.23-.537-.153A2.021,2.021,0,0,1,394.577,370.571Zm.384,1.688a6.764,6.764,0,0,1,1.688.153s.844.153.23.767a1.762,1.762,0,0,1-1.918.384,4.146,4.146,0,0,1-.614-.614A.7.7,0,0,1,394.961,372.259Zm0,5.755a1.094,1.094,0,0,1,1.151.46c.23.23,0,.614-.077.767s-.537.153-.921.077-.537-.23-.614-.691C394.347,378.244,394.961,378.014,394.961,378.014Zm0,8.364s.46.077.844.153.153.23.23.46-.077.153-.537.23c-.46,0-.921-.153-.921-.384C394.5,386.608,394.961,386.378,394.961,386.378Zm1,1.458a2.554,2.554,0,0,1,1.074-.077c.23.077.384.153.307.307s0,.23-.384.23-1.535-.077-1.611-.307C395.5,388.066,395.728,387.912,395.958,387.835Zm5.371.46a2.929,2.929,0,0,1,1-.307,3.378,3.378,0,0,1,1.228-.153c.307.077.384,0,.46.23a.636.636,0,0,1-.23.614,6.656,6.656,0,0,1-2.148.384c-.307-.077-.537.077-.614-.153A.949.949,0,0,1,401.33,388.3Zm1.3-2.072c.307-.153.153-.23.691-.153.46,0,.537.23.537.307s.23,0,.077.23c-.23.307-.23.307-.537.307-.23,0-1,.077-.921-.153A.432.432,0,0,1,402.634,386.224Zm.23-.921c-.767.153-1.842.307-1.688-.46s-.077-.077-.077-.077a.352.352,0,0,1,.307-.537,5.935,5.935,0,0,1,1.381-.154,2.776,2.776,0,0,1,1.074.077c.23.153.614.46.307.767C403.862,385.3,403.631,385.227,402.864,385.3Zm-.077-2.839a.917.917,0,0,1,.614-.307c.153,0,.46,0,.537.23.077.307.077.614-.077.691a1.116,1.116,0,0,1-.767.077c-.384-.077-.384-.23-.384-.23S402.481,382.771,402.787,382.464Zm1.151-1-1,.077s-1.151-.077-1.381-.077a1.038,1.038,0,0,1-.767-.537c-.154-.384.077-.537.307-.767s1-.23,1-.23c1.458-.077,1.918.154,1.995.307a2.27,2.27,0,0,1,.23.921A1.07,1.07,0,0,1,403.938,381.467Zm-.153-6.369a.7.7,0,0,1-.691.46c-.46-.077-.46-.537-.153-1.074a1.183,1.183,0,0,1,.844-.537l.307.153S403.862,374.868,403.785,375.1Zm-1.458-1.458c-1.535.077-1.765-.23-1.611-.537.153-.23.23-.844.921-.844a6.933,6.933,0,0,1,1.611-.154c.384.154.844.307.767.691S403.862,373.564,402.327,373.64Zm1.535-2.225c-.153.23-.23.307-.767.23-.46-.077-.537-.307-.614-.691a.767.767,0,0,1,.23-.614s.077-.153.46-.153a.691.691,0,0,1,.614.46A1.326,1.326,0,0,1,403.862,371.415Zm-.077-16.19s-.077,2.148-.077,2.225a2.95,2.95,0,0,1-1.381-.077c-.691-.077-.614-.614-.614-.614v-1.688a.722.722,0,0,1,.691-.691h.077C404.169,354.3,403.785,355.225,403.785,355.225Zm-4.3,1.765c0,.077-.46.077-1.151.077-.691-.077-.691-.153-.844-.614a14.919,14.919,0,0,1-.153-1.841c0-.384,1.074-.46,1.074-.46.537,0,.691.23.767.384.153.153.153,1.074.153,1.074S399.488,356.913,399.488,356.99Zm-3.069,3.53c.077.153.154.767-.307.921a1.892,1.892,0,0,1-1.3,0c-.23-.153-.384-.153-.384-.537,0,0,.153-.537.46-.537C395.268,360.443,396.419,360.366,396.419,360.52Zm-1.458-2.455c.767-.077.614.23.614.23s-.077.921-.077,1.151c-.077.153-.46.23-.767.23a.419.419,0,0,1-.384-.384,6.112,6.112,0,0,0,.077-.844C394.424,357.988,394.961,358.064,394.961,358.064ZM394.5,355c-.077-.921.537-.691.537-.691l.614-.077s.077,1.611.153,1.841a6.578,6.578,0,0,1-.23,1,3.936,3.936,0,0,0-.767.077C394.577,357.3,394.577,355.916,394.5,355Zm14.042,3.453a.5.5,0,0,1-.154.537.561.561,0,0,1-.691-.077c-.384-.23,0-.767,0-.767A.645.645,0,0,1,408.542,358.448Zm-.614-1.765a.319.319,0,0,1,.46,0c.23.23-.077.46-.153.46C408.235,357.143,407.775,357.067,407.928,356.683Zm1.995,1.688c.384.153.077.691.077.691a1.452,1.452,0,0,1-.46.307c-.23.077-.384-.153-.537-.384-.077-.307.307-.537.307-.537A.57.57,0,0,1,409.923,358.371Zm-.537-1.611a.238.238,0,0,1,.153-.307c.384-.077.46.307.23.46A.215.215,0,0,1,409.386,356.76Zm3.683,2.455a.668.668,0,0,1-.46-1.228c.767-.384,1,.23,1,.537S413.453,359.215,413.069,359.215Zm.23,1.918c-.077.153-.384.23-1.688.23-1.3-.077-1-.384-1-.691a.41.41,0,0,1,.307-.384l1.151-.077c1.151-.077,1.228.077,1.381.384C413.606,360.98,413.376,360.98,413.3,361.133Zm-.537-3.836a8.174,8.174,0,0,0-1.381,0c-.23,0-.614.077-.614-.46,0,0-.077-.46.537-.384.537.077,1.688.154,1.688.154s.384.153.384.384C413.453,357.143,413.223,357.374,412.762,357.3Zm-1.381,1.3s.077.23-.307.46c-.307.153-.537-.153-.614-.384s.23-.537.23-.537A.636.636,0,0,1,411.381,358.6Zm1.228,3.453s.767-.153.921.307.153.844-.537,1.228a1.852,1.852,0,0,1-1.765-.23,2.3,2.3,0,0,0-1.3-.537c-.614,0-.537-.153-.614-.384s.307-.384.307-.384Zm-7.289,24.553c-.307-.23.23-.46.384-.46a4.675,4.675,0,0,1,1.3.23c.153.153,0,.384-.077.46s-.307.077-.691.154A1.416,1.416,0,0,1,405.32,386.608Zm.384,1.842c-.23.077-.307,0-.384-.153-.077-.23.23-.307.23-.307s.307-.077.307.153C405.933,388.3,405.933,388.3,405.7,388.449Zm-.384-21.177c-.23.077-.307-.153-.307-.46a.647.647,0,0,1,.153-.537.469.469,0,0,1,.537.077c.307.153.077.307,0,.614C405.7,367.272,405.55,367.2,405.32,367.272Zm.23,1.458c0,.153-.23.23-.384.307s-.307,0-.307-.307.077-.307.077-.307.307-.077.384,0A.411.411,0,0,1,405.55,368.73Zm-.077-3.53c-.384.153-.537.077-.614-.153s.153-.614.153-.614a.973.973,0,0,1,.46-.153c.23,0,.384.307.384.307A.765.765,0,0,1,405.473,365.2Zm-.153,5.218a6.047,6.047,0,0,0,1.228,0c.46-.077.46.153.46.23a1.728,1.728,0,0,0,.077.537c0,.23-.46.23-.46.23a7.293,7.293,0,0,0-1.074.077,1.062,1.062,0,0,1-.537-.153,5.925,5.925,0,0,1-.077-.767C404.936,370.264,405.32,370.418,405.32,370.418Zm4.3,6.906a3.275,3.275,0,0,1-1.228,0c-.23,0-.307-.153-.46-.46a.342.342,0,0,1,.077-.46c.077-.153,1.228.153,1.458.153s.46-.307.537-.384a.586.586,0,0,1,.384-.154c.153.077.153.23.153.537s-.153.23-.153.307A2.215,2.215,0,0,1,409.616,377.323Zm.077,1.765c-.153.384-.077.614-.384.46s-.921-.767-.921-1.074c0,0-.077-.307.384-.46s.691-.077.767.153A.86.86,0,0,1,409.693,379.088Zm-.767-8.824a8.031,8.031,0,0,1,1.3.307c0,.077-.077.537-.077.691-.077.153-.46.307-.691.384a2.923,2.923,0,0,1-1.3-.307c-.384-.077-.384-.46-.23-.844.077-.384.384-.23.384-.23Zm-.23-3.606c-.153-.307.077-.307.077-.307a.4.4,0,0,1,.384.077c.153.153.077.307,0,.46A.342.342,0,0,1,408.7,366.658Zm.23,8.364c-.614-.153-.537-.384-.46-.691a.409.409,0,0,1,.307-.384c.921-.077.614.614.614.691C409.31,374.791,409.463,375.175,408.926,375.022Zm-.077-2.072c.46-.077.46.077.384.307a.243.243,0,0,1-.46-.077C408.7,372.95,408.849,372.95,408.849,372.95Zm1.381,6.675a1.453,1.453,0,0,1,.307-.46c0-.077.307-.077.614,0,.307.153.153.153.077.307,0,.153-.23.384-.384.46s-.384.23-.537.154A.43.43,0,0,1,410.23,379.625Zm.767.844c.077-.23.537-.307.537-.307a2.644,2.644,0,0,1,.691.077c.153.077,0,.23,0,.537,0,.23-.154.307-.384.46a.584.584,0,0,1-.691-.077C411,381.083,410.921,380.7,411,380.469Zm.077,1.765c.23-.46.46-.307.46-.307l1.688.077s.46,0,.46.153.23.614-.077.767a5.143,5.143,0,0,1-1.918.077C411.3,383,410.844,382.771,411.074,382.234Zm1.535-3.146c-.384-.153-.767-.614-1.074-.614s-1-.077-.691-.537c0,0,.077-.307.614-.307s1.688.153,1.688.153.537.307.537.46a.927.927,0,0,1-.23.691A.6.6,0,0,1,412.609,379.088Zm-1.228-3.146s.077-.077.23.077.077.23,0,.384-.23.077-.307-.153C411.151,376.019,411.381,375.942,411.381,375.942Zm.614-1.151a.88.88,0,0,1-.767.077c-.23-.153-.384-.23-.46-.46,0-.23.307-.46.307-.46s.077-.077.614,0c.46.077.384.077.537.46C412.3,374.791,412.149,374.638,412,374.791Zm-2.532-5.6s-.307-.077-.307-.691c0,0-.153-.384.46-.384h2.148a.335.335,0,0,1,.23.537c-.23.384-.077.537-.614.537A15.3,15.3,0,0,1,409.463,369.19Zm-.614-4.067c-.307.23-.691,0-.614-.307s.153-.307.153-.307a1.168,1.168,0,0,1,.691-.077C409.54,364.51,409.233,364.893,408.849,365.123Zm-.384,3.146c.307.077.153.384.077.614a2.272,2.272,0,0,1-.23.307s-.384.077-1.228.153-.921-.23-.844-.767c0-.537.767-.384.767-.384A11.459,11.459,0,0,1,408.466,368.269Zm-1.228,14.655-.46.077s-.767.077-.844.077a.827.827,0,0,1-.537-.153c-.23-.153-.23-.307-.153-.537s.384-.23.384-.23.844.077,1.228.077.384.153.46.307C407.468,382.618,407.238,382.925,407.238,382.925Zm.384,1.228v.767c0,.384-.307.23-.46.307s-.384-.153-.537-.307c-.077-.153-.077-.307,0-.767,0-.46.307-.384.307-.384A1.484,1.484,0,0,1,407.621,384.152Zm-1.611.614c0,.077-.077.23-.307.307s-.384-.077-.384-.46.23-.307.23-.307C405.7,384.229,406.01,384.689,406.01,384.766Zm-.307-4.834c.384,0,.384.154.384.307-.077.153-.23.077-.46-.077C405.473,380.009,405.7,379.932,405.7,379.932Zm1.458,1.688a.683.683,0,0,1-.614,0,.973.973,0,0,1-.307-.691.529.529,0,0,1,.23-.384,1.851,1.851,0,0,1,.921.767C407.391,381.544,407.008,381.7,407.161,381.62Zm-1.458-2.532c-.384.154-.46-.307-.46-.614a.409.409,0,0,1,.307-.384,5.285,5.285,0,0,1,1.381-.384c.46,0,0,.537,0,.537S406.01,378.935,405.7,379.088Zm1.381-2.839c0,.153-.077.153-.23.307-.153.077-.307-.077-.384-.153s.153-.384.153-.384c0-.077.307-.153.384-.077S407.008,376.1,407.084,376.249Zm-.077-1.228c-.077.153-.307.077-.46.077-.077,0-.23-.077-.23-.537-.077-.384.153-.384.153-.384a2.713,2.713,0,0,1,.46-.077c.153,0,.153.384.23.537C407.161,374.868,407.084,374.868,407.008,375.022Zm-1.611-.537a.6.6,0,0,1,.307.23c.077.153,0,.23-.153.307-.153.153-.307-.077-.384-.307C405.166,374.561,405.4,374.561,405.4,374.484Zm0,1.611c.23-.154.46.153.537.384s-.077.384-.307.384c-.23.077-.384-.077-.384-.46C405.166,376.1,405.4,376.1,405.4,376.1Zm1.611,11.74c.153-.077.23-.153.384-.077s.23.153.153.307c0,.153.077.307-.23.307s-.537.307-.691-.077C406.7,388.3,406.931,387.912,407.008,387.835Zm0-8.057c-.153-.307.153-.614.153-.614a.683.683,0,0,1,.614,0,.977.977,0,0,1,.384.844c0,.153,0,.23-.384.307A.762.762,0,0,1,407.008,379.779Zm1.074,6.445c.384-.077,1.918-.153,1.918-.153a2.16,2.16,0,0,1,.844-.077.358.358,0,0,1,.384.384c0,.153,0,.307-.307.46a11.369,11.369,0,0,1-2.762.077c-.153-.077-.46-.23-.307-.46C407.775,386.531,407.7,386.3,408.082,386.224Zm2.992-1.535a.718.718,0,0,1,.077-.537,1.319,1.319,0,0,1,.767.23c.23.23,0,.307,0,.46s-.307.23-.614.307C411.074,385.15,411.074,385,411.074,384.689Zm1.458,1.381c.46,0,1.3.077,1.3.23s-.23.384-.23.384-.844.077-1.151.077c-.23,0-.537-.077-.46-.46C412,385.994,412.532,386.071,412.532,386.071Zm1-.921c-.153.077-.46-.153-.537-.307a1.038,1.038,0,0,1,0-.691c.077-.307.23-.307.23-.307a2.169,2.169,0,0,1,.46.23c.23.23.153.46.153.767C413.76,385.227,413.606,385.073,413.53,385.15Zm.23-4.22c-.077.153-.307.153-.614,0-.23-.077-.077-.307-.077-.537.077-.307.23-.307.23-.307a.794.794,0,0,1,.307-.077c.153,0,.23.46.307.614S413.837,380.853,413.76,380.93Zm0-3.913c-.153.23-.537.153-.921,0s-.384-.46-.307-.844.537-.384.537-.384c.844,0,.691.384.844.537A.932.932,0,0,1,413.76,377.016Zm-.691-2.686c.537-.153.537.153.691.307a.483.483,0,0,1,0,.46c-.077.23-.307.077-.46.077s-.307-.23-.307-.537C412.916,374.408,413.069,374.331,413.069,374.331Zm.691-2.916c-.077.384-.23.307-.614.384a6.788,6.788,0,0,1-1.765,0c-.46-.077-.23-.307-.307-.921s.46-.537.46-.537a3.244,3.244,0,0,1,2.148,0A1.639,1.639,0,0,1,413.76,371.415Zm-.077-2.225c-.077.23-.077.307-.384.307-.307.077-.384-.307-.46-.614s-.153-.307.077-.691c.153-.307.537,0,.614.153A1.518,1.518,0,0,1,413.683,369.19Zm-.23-1.995c-.153.153-.46.153-1.074.23-.614,0-.691-.153-.691-.46s-.153-.46.307-.767a1.831,1.831,0,0,1,.921-.153c.614,0,.691.46.767.691C413.76,366.888,413.606,367.042,413.453,367.2Zm-.691-2.839c0-.154.46-.154.614-.077.23,0,.23.384.23.691-.077.307-.077.384-.46.384-.384.077-.384-.23-.46-.537A.591.591,0,0,1,412.762,364.356Zm-3.683-4.22c.384.153.46.767.537,1.074s-.307.384-.614.46a1.346,1.346,0,0,1-1.074-.46c-.307-.307.077-.767.077-.767A2.232,2.232,0,0,1,409.079,360.136Zm-.614,2.225a.425.425,0,0,1-.23.46h-1.151c-.46,0-.614.153-1.381.537s-.921-.307-.921-.767c0-.537.384-.537.384-.537s.46-.153.691,0a8.629,8.629,0,0,0,1.535.153C407.775,362.284,408.389,362.054,408.466,362.361Zm-3.3-2.072a1.724,1.724,0,0,1,.767-.077c.23.077.384.384.46.614.077.307-.23.384-.614.46a.727.727,0,0,1-.844-.384C404.629,360.673,405.166,360.289,405.166,360.289Zm1.381-.307c-.23,0-.46-.077-.614-.537s.384-.537.384-.537c.307-.153.921.077.844.537A.569.569,0,0,1,406.547,359.982Zm-.077-2.532c-.537.077-1.381.153-1.381.153l-.077-.307s0-.691.537-.691,1.381-.154,1.381.153C407.084,356.99,407.084,357.3,406.471,357.45Zm-1.151,1.688c-.384.077-.537-.23-.614-.46s.307-.307.307-.307C405.32,358.371,405.7,359.062,405.32,359.138Zm15.116-2.992a2.989,2.989,0,0,1,1.228-.077,5.312,5.312,0,0,0,1.918.077,4.1,4.1,0,0,1,1.688-.153c.46.077,2.916,0,2.916,0h1.381a19.933,19.933,0,0,1,2.148,0c.384,0,1.535,0,1.535.307.077.384.23.614-.23.844s-.307-.23-.767-.307-.614.077-1,.153a2.806,2.806,0,0,1-1.381,0,1.636,1.636,0,0,0-.614,0,1.026,1.026,0,0,1-.691-.077,1.484,1.484,0,0,0-1,0,2.276,2.276,0,0,1-1.228.153,1.133,1.133,0,0,0-.691-.077,2.338,2.338,0,0,1-1.535,0,3.006,3.006,0,0,0-1.765-.153,2.765,2.765,0,0,1-1.611.077,15.207,15.207,0,0,0-3.223-.077c-.46.077-.767.614-1.228-.077,0,0-.077-.46.537-.537s2.609-.077,2.609-.077A4.282,4.282,0,0,0,420.435,356.146Zm.077-1.611c.767-.077,1.842-.153,1.842-.153s.921-.077,1,.384c0,.537.077.691-.921.691s-1.995.077-1.995.077a.612.612,0,0,1-.46-.46C419.9,355.072,419.745,354.611,420.512,354.535Zm3.453.384s.153-.307.844-.307a11.472,11.472,0,0,1,1.688,0c.077.077.307.307.23.46s.153.23-.767.307a6.331,6.331,0,0,0-1.381.153C424.349,355.455,423.965,355.762,423.965,354.918Zm6.292.46c-.767,0-2.455.077-2.455.077a.4.4,0,0,1-.23-.537s0-.384.614-.384,2.225.077,2.225.077.537,0,.537.307C430.871,355.3,431.024,355.379,430.257,355.379Zm-15.423,27.086a.225.225,0,0,1,.23-.23s.077-.077.46-.077c.46,0,.614.23.537.46a2.379,2.379,0,0,1-.153.537,2.509,2.509,0,0,1-.614.153c-.46,0-.46-.307-.46-.307Zm3.069-23.94c-.23,0-.384-.23-.537-.46s.153-.537.153-.537a.966.966,0,0,1,.614.077c.23.153.153.691.153.767C418.364,358.448,418.133,358.6,417.9,358.525Zm.23,1.381c0,.23-.23.153-.537,0s0-.384,0-.384C418.057,359.369,418.21,359.676,418.133,359.906Zm1,2.148c.307.077.153.46.153.691,0,.153-.307.307-.767.46a7.366,7.366,0,0,1-1.842,0c-.307,0-.23-.614-.23-.921s.46-.23.46-.23A21.287,21.287,0,0,1,419.131,362.054Zm.23-2.3c.077-.384.23-.46.614-.46.384-.077.307.23.384.46.077.153.077.384.23.537.23.154.384.23.384.537s-.537.307-.767.384a11.448,11.448,0,0,1-1.458.307c-.537.077-.384-.153-.384-.384a.3.3,0,0,1,.307-.307s.307-.077.537-.153S419.284,360.136,419.361,359.752Zm0-1.535c0-.153.307-.384.307-.384s.23-.307.46-.153c.23.077.23.46.153.691a.676.676,0,0,1-.691.307A.547.547,0,0,1,419.361,358.218Zm2.992,1.995c.153.23.537,0,.691,0,.153-.077,0-.307.077-.537,0-.23.077-.384.23-.384.153-.077.384.153.384.23a.812.812,0,0,0,.384.691,1.107,1.107,0,0,0,1-.23c.153-.153,0-.384.077-.537,0-.153.537-.153.767-.153.307,0,.23.23.23.384a5.712,5.712,0,0,1,0,1.151c0,.307-.23.307-.537.46-.307.077-2.762.153-3.376.153-.614-.077-.537-.614-.767-1.151a1.939,1.939,0,0,1,0-1c.077-.23.767-.153.767,0C422.43,359.522,422.2,359.982,422.354,360.213Zm1-2.455a1.141,1.141,0,0,1,.537,0,.424.424,0,0,1,.154.46c0,.077-.154.23-.384.307-.307,0-.384,0-.537-.384C422.967,357.911,423.351,357.757,423.351,357.757Zm1.918,0a.336.336,0,0,1,.23-.077.51.51,0,0,1,.384.307c.077.153.077.23-.153.384s-.384,0-.537-.23C425.039,357.988,425.269,357.757,425.269,357.757Zm1.841,1.688c0-.384.307-.23.307-.23,1.228-.153.767.46.767.614v.614a3.935,3.935,0,0,1,.767.077c.384.153.307.307.23.537s-.384.23-.537.23a12.451,12.451,0,0,1-1.611-.077c-.307,0-.23-.307-.23-.46s.153-.153.23-.307C427.264,360.366,427.188,359.829,427.111,359.445Zm.077-1.611a.409.409,0,0,1,.307-.384h.23a.422.422,0,0,1,.23.384.411.411,0,0,1-.384.384C427.341,358.371,427.111,358.141,427.188,357.834Zm2.609.537c-.153.077-.384-.077-.46-.23a.238.238,0,0,1,.153-.307.793.793,0,0,1,.307-.077c.077,0,.23.23.23.307A.286.286,0,0,1,429.8,358.371Zm.23,1.381a.326.326,0,0,1-.537-.23.332.332,0,0,1,.153-.307C430.1,359.062,430.257,359.522,430.027,359.752Zm.384,2.148c.384,0,.153.384.153.614s-.153.23-.307.384c-.153.077-.767.077-1.381.23s-.767-.384-.614-.844c.077-.46.614-.307.614-.307S430.1,361.9,430.41,361.9Zm3.069,6.522a.53.53,0,0,1-.23.614c-.077.153-.46.153-1.074.153a.9.9,0,0,1-.844-.23,1.651,1.651,0,0,1-.153-.767.6.6,0,0,1,.384-.537H433.1c.307.077.307.23.307.23A3.21,3.21,0,0,0,433.479,368.423Zm-2.225,1.918c0-.384.614-.384.614-.384s.614-.153,1.074-.23.537.077.537.153a1.038,1.038,0,0,1,0,.691c0,.23-.23.46-.46.614-.23.23-.767.077-1.458,0C430.947,371.108,431.254,370.725,431.254,370.341Zm1.074,1.611a3.052,3.052,0,0,1,.844,0c.153.077.307.154.307.23a3.96,3.96,0,0,1-.153.844c-.077.077-.384,0-.537-.077a3.1,3.1,0,0,0-.844,0,5.805,5.805,0,0,1-1.151.077.709.709,0,0,1-.691-.23.685.685,0,0,1,0-.767c.153-.307,1-.23,1-.23S432.252,371.952,432.328,371.952Zm.691,2.992a2.138,2.138,0,0,1-.767.077.7.7,0,0,1-.537-.23.721.721,0,0,1-.077-.691c.077-.23.691-.23.691-.23a2.468,2.468,0,0,1,.614.077c.23,0,.307.23.307.384A2,2,0,0,1,433.019,374.945Zm.537,7.673c0,.307-.153.384-.153.384a5.925,5.925,0,0,1-.767.077,1.547,1.547,0,0,1-.844-.23c-.23-.153-.154-.46-.077-.921.077-.384.614-.307.614-.307h.767c.537-.077.384.23.384.23A5.921,5.921,0,0,1,433.556,382.618Zm-.46.844c.537,0,.46.384.46.384a1.835,1.835,0,0,0-.077.691c0,.614-.537.46-.537.46H431.1c-.537-.077-.691-.384-.691-.921,0-.614.691-.614.691-.614Zm-2.3-.46-.384.077a5.6,5.6,0,0,1-1.151.153c-.537,0-.46-.307-.46-.307a2.752,2.752,0,0,1,0-.844c.077-.384.614-.384.614-.384,1-.153,1.3.153,1.3.153l.077.46Zm-6.522,1.458c-.077-.384.767-.46.767-.46h1c.384,0,.307.153.384.307s-.077.46-.077.46a1.213,1.213,0,0,1-.921.384C423.888,385.227,424.349,384.843,424.272,384.459Zm-7.366-2.3c0-.384.614-.307.614-.307h1.765c.537.077.537.691.537.921s-.537.384-.537.384l-1.535.153c-.767.077-.691-.307-.691-.307A3.2,3.2,0,0,1,416.906,382.157Zm2.148-8.824c-1.074,0-.844-.537-.844-1-.077-.46.46-.537.46-.537a9.955,9.955,0,0,1,1.995.23c.153.153.077.46-.077.691A1.674,1.674,0,0,1,419.054,373.333Zm.384,1.458c0,.23-.307.23-.307.23a11.9,11.9,0,0,0-1.918.307c-.844.23-.691-.307-.691-.307a3.522,3.522,0,0,1,.077-.767c.077-.23.614-.153.614-.153s1.458-.077,1.688-.153c.307-.077.384.153.384.153A4.89,4.89,0,0,1,419.438,374.791Zm8.133-3.836a.342.342,0,0,1-.23.307,4.247,4.247,0,0,1-1.3-.077c-.537-.153-.46-.307-.46-.691a.48.48,0,0,1,.384-.46,3.827,3.827,0,0,1,1-.077c.767,0,.537.153.537.153S427.571,370.725,427.571,370.955Zm-5.908,1.381c-.077-.307.23-.23.23-.23s.691-.077,1.151-.077.384.077.46.153a1.7,1.7,0,0,1,.077.691c0,.23-.46.153-.46.153a5.46,5.46,0,0,1-1.228.077C421.51,372.95,421.74,372.643,421.663,372.336Zm3.146-2.072a2.468,2.468,0,0,1-.077.614c0,.23-.23.307-.384.307a1,1,0,0,1-.921-.077c-.46-.23-.46-.307-.46-.691a.3.3,0,0,1,.307-.384,10.419,10.419,0,0,1,1.151.077C425.039,370.188,424.809,370.264,424.809,370.264Zm1.458,1.765a5.011,5.011,0,0,1,0,1.074h-1.842c-.23,0-.307-.384-.307-.691a.672.672,0,0,1,.153-.46A5.568,5.568,0,0,1,426.267,372.029Zm-3.223,2.148c.077-.153.46-.153.46-.153h.691a.562.562,0,0,1,.614.614.3.3,0,0,1-.307.307,6.066,6.066,0,0,1-1.074.077c-.691,0-.46-.153-.537-.23A1.445,1.445,0,0,1,423.044,374.177Zm1.458,1.688a10.424,10.424,0,0,1,1.151.077c.614.077.537.537.537.844,0,.23-.384.23-.384.23a3.208,3.208,0,0,1-1.074.077c-.46,0-.614-.307-.691-.691C423.888,375.942,424.5,375.866,424.5,375.866Zm1.381-.691c-.23,0-.307-.23-.23-.46s.691-.46.691-.46a4.757,4.757,0,0,1,1.074-.307c.23-.077.307.307.307.307s.077.614.077.767-.46.23-.46.23S426.037,375.175,425.883,375.175Zm.23-5.908a5.734,5.734,0,0,1-.844.153,3.107,3.107,0,0,1-1.228-.077c-.153-.077-.077-.384-.077-.691a1.436,1.436,0,0,1,.307-.691c0-.154,1.074-.23,1.535.153s.384.614.384.767C426.344,369.113,426.267,369.19,426.113,369.267ZM424.5,367.2h-1.151c-.614,0-.537-.23-.537-.23a4.241,4.241,0,0,1-.077-.691c.077-.23.23-.23.384-.23s1.151-.153,1.151-.153a.358.358,0,0,1,.384.153,1.281,1.281,0,0,1,.23.691C425.039,367.042,424.5,367.2,424.5,367.2Zm-1.3.691a.938.938,0,0,1,.23.691.6.6,0,0,1-.23.537c-.153.23-.46.23-.614.307a1.008,1.008,0,0,1-.767-.23c-.153-.153-.153-.384-.153-.767.077-.384.384-.46.46-.614S423.044,367.732,423.2,367.886Zm-.767,2.839c0,.23-.077.23-.23.384a3.528,3.528,0,0,1-1.611.077c-.46-.077-.307-.307-.384-.46a.515.515,0,0,1,.307-.537,2.111,2.111,0,0,1,.921-.077C422.43,370.188,422.43,370.494,422.43,370.725Zm-1.688-1.611c-.077.23-.153.23-.537.23a.57.57,0,0,1-.46-.46.785.785,0,0,1,.307-.537c.46-.691.614,0,.691.153C420.819,368.5,420.819,368.806,420.742,369.113Zm-.614,5.141c0-.46.614-.307.614-.307h1.074a.575.575,0,0,1,.46.23s0,.46-.153.614-.384.153-.537.307c-.23.077-.614-.153-.614-.153s-.46-.077-.614-.077C420.128,374.868,420.052,374.715,420.128,374.254Zm.537,3.3,1-.077s.614,0,.691.23a1.212,1.212,0,0,1,0,.537c0,.23,0,.384-.46.384h-1a.484.484,0,0,1-.537-.307C420.282,378.091,420.359,377.63,420.665,377.554Zm1.381-.614c-.384,0-.384-.23-.384-.23V376.1c0-.307.384-.384.384-.384a8.34,8.34,0,0,1,1-.077c.384-.077.23.23.23.23v.614a.342.342,0,0,1-.23.307A4.312,4.312,0,0,1,422.047,376.94Zm1.535.844a5.924,5.924,0,0,1,.767-.077c.307.077.384.153.384.307s-.077.844-.077.844a.576.576,0,0,1-.46.23H423.5a1,1,0,0,1-.23-.691A2.043,2.043,0,0,1,423.581,377.784Zm.691,2.532a.663.663,0,0,1,.46-.614,4.694,4.694,0,0,1,1.074-.23c.384,0,.384.307.384.307a1.86,1.86,0,0,1,0,.691c0,.23-.307.307-.307.307a5.789,5.789,0,0,1-1.151.307c-.384,0-.46-.23-.46-.23S424.2,380.776,424.272,380.316Zm1.765-1.381s-.307.153-.384-.153-.153-.767-.153-.767a.376.376,0,0,1,.384-.384l.767-.153s.691-.153.844.153.46.691.23.921a1.094,1.094,0,0,1-.614.307Zm2.225.691c1.381-.077,1.458.077,1.458.307s-.384.767-.614.767a6.631,6.631,0,0,0-1.151.384s-.921.153-.921-.614C427.111,380.469,426.881,379.7,428.262,379.625Zm-.844-6.675s-.537-.077-.46-.46c0,0-.077-.614.384-.614.537,0,1.458.077,1.458.077s.691,0,.767.23c0,.23.23.844,0,.844A18.056,18.056,0,0,1,427.418,372.95Zm0-3.99c-.077.153-.384-.077-.537-.153a.523.523,0,0,1-.23-.384.4.4,0,0,1,.077-.384c.077-.077.384,0,.537.077s.23.384.23.46A.337.337,0,0,1,427.418,368.96Zm-.537-4.6c0-.384.153-.384.153-.384h1.3c.614,0,.614.23.614.384s-.077.767-.077.767-.844.077-1.458.077C426.8,365.123,426.957,364.74,426.881,364.356Zm.384,1.535c.23.077.307.384.307.691a.552.552,0,0,1-.307.537,4.743,4.743,0,0,1-1.151.077c-.384,0-.46-.153-.46-.153a4.131,4.131,0,0,1-.077-.614c0-.23.077-.307.307-.537A2.8,2.8,0,0,1,427.264,365.891Zm-1.3-1.611a1.1,1.1,0,0,1-.153.537.5.5,0,0,1-.384.23,5.541,5.541,0,0,1-1.151,0c-.307,0-.23-.307-.077-.767.077-.384.614-.307.614-.307C426.037,363.972,425.96,364.279,425.96,364.279Zm-1.151-1.228c-.077.23-.384.384-1,.384-.691,0-.691-.384-.691-.691a.568.568,0,0,1,.307-.46,4.887,4.887,0,0,1,1.458.077A2.643,2.643,0,0,1,424.809,363.052Zm-1.458,1.074c.077,0,.153.307.153.614s-.153.153-1,.307-.767-.307-.767-.614c0-.23.614-.307.614-.307Zm-1.688,1.611c.384,0,.384.691.46.844a.73.73,0,0,1-.153.537c-.077.153-.384,0-.921,0s-.767.077-1-.153a1.1,1.1,0,0,1-.23-.844c0-.307.154-.384.691-.46A4.417,4.417,0,0,0,421.663,365.737Zm-.767-.537a6.557,6.557,0,0,1-2.148,0c-.537-.077-.46-.537-.384-.921a.383.383,0,0,1,.46-.307h1.535c.23,0,.307.077.46.384A.7.7,0,0,1,420.9,365.2Zm-2.379,1.611a1.843,1.843,0,0,1,0,.921,1.08,1.08,0,0,1-.46.537.717.717,0,0,1-.691,0,1.292,1.292,0,0,1-.46-.844,1.181,1.181,0,0,1,.153-.614.857.857,0,0,1,.537-.307A.812.812,0,0,1,418.517,366.811Zm-1.535,3.376s1.381-.077,1.995-.077.537.537.46.844a.409.409,0,0,1-.307.384,10.446,10.446,0,0,1-1.918.077c-.767-.077-.691-.23-.767-.691A.567.567,0,0,1,416.983,370.188Zm.077,1.842s.614,0,.691.384.23.691-.307.767a6.2,6.2,0,0,1-1.918.307c-.46-.077-.537-.307-.537-.46a2.642,2.642,0,0,1-.077-.691s.307-.23.46-.154Zm-1.535-2.225a.6.6,0,0,1-.614.153c-.23-.153-.307-.307-.23-.691s.23-.46.23-.46c.077-.153.307-.153.537-.077s.23.23.23.384A.783.783,0,0,1,415.525,369.8Zm-.46,4.22s.614-.153.844,0c.23.077.23.384.23.614,0,.153-.153.307-.384.384-.23.153-.614-.077-.767-.077s-.23-.077-.23-.537C414.757,374.024,415.064,374.024,415.064,374.024Zm-.23,2.225c.077-.307.46-.307.46-.307v-.077s2,.077,2.3.153.153.384.153.46-.077.46-.077.46l-.614.077a8.216,8.216,0,0,1-1.3.23c-.767.077-.767-.23-.844-.23S414.834,376.556,414.834,376.249Zm2.072,1.458c.307-.077,1.381-.153,1.381-.153s1.074-.153,1.3.23a2.049,2.049,0,0,1,.307.767s0,.46-.23.46h-2.532s-.384-.153-.307-.46C416.752,378.551,416.6,377.707,416.906,377.707Zm.537,2.225a.4.4,0,0,1,.384.307,2.875,2.875,0,0,1,.077.614s0,.307-.384.307c-.384.077-1.995.077-1.995.077s-.614.23-.46-.537a4.888,4.888,0,0,0,.153-.537.909.909,0,0,1,.537-.307C416.062,379.856,417.443,379.932,417.443,379.932Zm1.688,1.228s-.691.307-.691-.614a1.032,1.032,0,0,1,1-.844c.921,0,1,.077,1,.077a.507.507,0,0,1,.537.23c.077.307.077.614-.154.767A5.711,5.711,0,0,1,419.131,381.16Zm1.228,1.074c.077-.307.537-.384.537-.384a1.912,1.912,0,0,1,1.688.614c.153.307-.153.537-.46.691a1.925,1.925,0,0,1-1.381.153A.715.715,0,0,1,420.359,382.234Zm2.072-1.151a.769.769,0,0,1-.767-.767c.077-.384.537-.46.537-.46a4.959,4.959,0,0,1,.767-.153c.46-.077.307,0,.46.153a.88.88,0,0,1,.077.767.558.558,0,0,1-.384.384A1.834,1.834,0,0,1,422.43,381.083Zm1,.691.844-.077a.484.484,0,0,1,.537.307c.153.384.307.767.153.844a8.873,8.873,0,0,1-1.3.077s-.307.077-.384-.307C423.2,382.311,423.2,381.85,423.428,381.774Zm2.225.23s.077-.384.307-.307c.307,0,1.611.077,1.611.077s.46-.077.384.23c-.077.384,0,.614-.23.767s-.307.307-1.3.23C425.576,382.925,425.806,382.694,425.653,382Zm2.916,2.3c.921,0,.767.153.844.46a.3.3,0,0,1-.307.307h-1.074c-.46,0-.46-.307-.46-.537S428.569,384.306,428.569,384.306Zm.537-5.448c-.691,0-.537-.46-.537-1s.614-.384.614-.384.844-.077,1.228-.077.46.23.46.23.077.614.077.844c-.077.153-.384.23-.384.23A8.7,8.7,0,0,1,429.106,378.858Zm-.153-3.836c-.307-.23-.537-.844-.153-1.074a2.325,2.325,0,0,1,1.3-.153c.691.153.691.384.691.46a.557.557,0,0,1-.537.691A1.961,1.961,0,0,1,428.952,375.022Zm1.611-5.294a10.864,10.864,0,0,1-.077,1.458c-.077.23-.384.23-.384.23a9.525,9.525,0,0,0-1.151.077c-.537,0-.614-.384-.614-.384v-1.074c0-.307.46-.23.46-.23s.767-.153,1.3-.23C430.564,369.5,430.564,369.727,430.564,369.727Zm-.767-2.686a6.064,6.064,0,0,1-.844.614c-.23.153-.46-.153-.614-.23a.822.822,0,0,1-.077-.691.419.419,0,0,1,.384-.384c.614-.307.767,0,1.074.23C430.1,366.811,429.8,367.042,429.8,367.042Zm-2-4.757c.153.153.077.307-.153.614s-.614.23-1.3.307-.614-.153-.691-.537a.552.552,0,0,1,.46-.537C427.188,361.977,427.648,362.131,427.8,362.284Zm-5.985-3.913c-.307.23-.46,0-.537-.23a1.561,1.561,0,0,1,.077-.384.531.531,0,0,1,.307-.23c.153-.077.307.153.384.23C422.123,357.911,422.123,358.141,421.816,358.371Zm.307,3.683c.537.23.153.844.077,1-.077.077-.307.307-1.151.23-.844,0-.844-.077-.844-.614,0-.614.384-.614.384-.614A3.285,3.285,0,0,1,422.123,362.054Zm-4.374,2.686a.948.948,0,0,1-.767.767,2.829,2.829,0,0,1-1.688-.23,1.318,1.318,0,0,1-.153-1,.4.4,0,0,1,.384-.307C417.6,364.126,417.75,364.51,417.75,364.74Zm-2.379-1.458c-.46.23-.537-.307-.614-.537s.23-.46.23-.46c.844-.384,1,.384,1,.384A1.048,1.048,0,0,1,415.371,363.282Zm-.077,2.916a.635.635,0,0,1,.614.384c.077.153,0,.307-.153.46a1.16,1.16,0,0,1-.691.307c-.384.077-.384-.153-.46-.384a.637.637,0,0,1,.153-.614C414.757,366.428,414.988,366.2,415.294,366.2Zm-.691,12.2c0-.307.384-.23.384-.23s.921-.077,1,.23c.077.23-.23.537-.23.537a1.851,1.851,0,0,1-.614.23.482.482,0,0,1-.537-.23Zm.767,6.752a.827.827,0,0,1-.153-.614c.077-.23.537-.46.537-.46h2.072c.384,0,.307.077.384.384.077.23-.077.307-.153.46s-.46.153-.537.23a5.948,5.948,0,0,1-1.458.153C415.678,385.3,415.525,385.3,415.371,385.15Zm.691,1.765c0,.23-.153.384-.46.384-.384,0-.384-.307-.384-.307v-.614c0-.307.384-.307.384-.307C416.062,386.071,416.062,386.608,416.062,386.915Zm1.842-1a15.122,15.122,0,0,1,1.611.077c.46.077.153.46.077.767a.336.336,0,0,1-.307.23s-.691.077-1.458.077c-.767.077-.767-.153-.767-.614S417.9,385.917,417.9,385.917Zm1.842-1c0-.23.307-.307.46-.307.614,0,.767.23.767.384,0,.077-.307.077-.614.153C419.975,385.15,419.745,385.15,419.745,384.92Zm.767,1.228c.077-.384.614-.384.614-.384a5.755,5.755,0,0,1,.921.077c.384,0,.46.153.46.384s-.23.537-.23.614-.384,0-.767.154c-.384.077-.537.153-.844,0S420.435,386.531,420.512,386.147Zm1.3-1.841c0-.384.537-.537.537-.537.921-.307,1.228,0,1.3.077a.828.828,0,0,1-.153.691c-.077.153-.153.307-.767.46C422.2,385.227,421.893,384.766,421.816,384.306Zm1.688,1.611c.23-.23,1-.153,1.228-.077s.153.46.153.691-.077.23-.46.384a.738.738,0,0,1-.921-.307A.506.506,0,0,1,423.5,385.917Zm1.151,1.842c.077-.23.691-.307.691-.307.307,0,.921.077.921.153s0,.384-.153.46a2.424,2.424,0,0,1-1.074,0C424.579,387.989,424.579,387.989,424.655,387.759Zm1.3-1.381c.077-.153-.153-.46.307-.537h.921s.537-.077.46.307,0,.537-.307.614a5.832,5.832,0,0,1-1.074.077C426.19,386.761,425.883,386.608,425.96,386.378Zm1.3,1.458c.077-.077.077-.23.921-.307s1.381.077,1.3.23c-.077.23.077.307-.384.384a12.031,12.031,0,0,1-1.688,0C427.341,388.142,426.957,388.066,427.264,387.835Zm1.535-1.151-.23-.23a.286.286,0,0,1,.23-.46c.46-.077,1.3-.307,1.3-.307s.537-.077.691.153.307.691,0,.844a4.9,4.9,0,0,1-1.074,0S428.876,386.838,428.8,386.684Zm1.918.921a1.7,1.7,0,0,1,.384-.307h2.072c.384,0,.307.077.384.23s-.077.307-.153.384a1.591,1.591,0,0,1-.46.153h-.614a7.954,7.954,0,0,0-1.228.077c-.307.077-.46,0-.537-.077S430.564,387.835,430.717,387.605Zm2.762-.844s-.844.077-1.3.077-.537-.23-.537-.537.614-.46.614-.46h1.074a.931.931,0,0,1,.384.077,1.524,1.524,0,0,1,0,.614A.572.572,0,0,1,433.479,386.761Zm.23-6.675c-.077.537.23.844-.46.844-.614,0-2.455-.077-2.455-.077s-.46,0-.384-.614.46-.614.46-.614h2.3S433.786,379.549,433.71,380.086Zm-2.148-2.072c.077-.384.307-.307.307-.307l.614-.077a5.235,5.235,0,0,1,.921.077c.307.077.23.307.23.307s0,.307-.077.384c-.077.153-.614.23-.614.23a5.458,5.458,0,0,1-1.228.077C431.561,378.7,431.484,378.321,431.561,378.014Zm2.148-1.381c-.153.307-.23.307-.23.307l-1.458.077s-1.458-.077-1.688-.077c-.23-.077-.077-.384,0-.691.077-.23.23-.307.46-.46.153-.153,1-.153,1-.153a9.037,9.037,0,0,1,1.918.307C434.017,376.1,433.786,376.326,433.71,376.633Zm-.077-10.052c0,.23-.307.46-.537.537a4.172,4.172,0,0,1-1.381,0c-.307-.077-.691-.307-.614-.691a.612.612,0,0,1,.46-.46,17.077,17.077,0,0,1,1.995,0C433.786,366.121,433.633,366.351,433.633,366.581Zm-.23-1.841a.788.788,0,0,1-.537.46s-1.995,0-2.532-.077-.384-.384-.384-.921c.077-.537,1.074-.307,1.074-.307s1.611,0,2.072.077C433.71,364.049,433.556,364.356,433.4,364.74Zm.077-1.918c.077.23-.307.384-.307.384h-1.458c-.307-.077-.23-.691-.154-.921a.238.238,0,0,1,.307-.153s1.3-.077,1.535-.077C433.556,361.9,433.4,362.591,433.479,362.821Zm-.384-1.688s-1.458.077-1.918.077-.844,0-1-.23,0-.384.23-.46a3.016,3.016,0,0,1,.46-.153,3.478,3.478,0,0,1,.077-.614c.077-.384.23-.46.23-.46a4.326,4.326,0,0,1,.537-.077c.153,0,.23.384.307.537,0,.23.23.46.767.537.537,0,.767.154.767.384C433.556,360.98,433.1,361.133,433.1,361.133Zm-1.765-2.992a1.546,1.546,0,0,1,.153-.46c.153-.153.537-.077.537-.077l.077.537s.23.077-.23.307C431.484,358.678,431.331,358.294,431.331,358.141Zm.614-3.376s.077-.077.767-.077.614.614.46.767c-.077.153-.767.23-1.074.153-.307,0-.537-.077-.614-.46C431.408,354.688,431.945,354.765,431.945,354.765Zm-12.967,1c-.153,0-2.609.153-2.609.153s-.23,0-.384-.614a.526.526,0,0,1,.537-.537c.537,0,2.3.077,2.3.077s.384,0,.307.46C419.131,355.686,419.131,355.686,418.977,355.762Zm-2.916,3.376c.307.077.154.46.307.921s.307.384.614.46.307.307.384.537c.077.307-.077.384-.384.46a5.41,5.41,0,0,1-1.611,0c-.691-.077-.537-.46-.537-.614s.46-.307.537-.537a.929.929,0,0,0-.077-.767.247.247,0,0,1,.153-.384A1,1,0,0,1,416.062,359.138Zm-.384-.537a.577.577,0,0,1-.537-.384c-.077-.23.307-.46.307-.46.307,0,.307.077.46.23S415.832,358.525,415.678,358.6Zm-1-2.148c.384,0,.077,0,.46.077s.077.307.077.307a4.268,4.268,0,0,1-.614.307c-.153.077-.46-.077-.384-.307C414.22,356.53,414.681,356.453,414.681,356.453Zm-.46-1.074a.72.72,0,0,1,.23-.691c.077-.077.307-.23.46-.153a.666.666,0,0,1,.537.384c.077.23-.077.46-.307.691C414.988,355.762,414.3,355.762,414.22,355.379Zm26.855,17.341a55.54,55.54,0,0,1-1.228,7.6c-.767,2.762-1.841,5.908-2.148,6.062a9.924,9.924,0,0,1-1.611.537c-.307,0-1.3.614-1.381-1.3-.153-1.918-.077-6.982-.077-6.982s0-1.535-.077-1.995a11.209,11.209,0,0,1-.307-2.992,8.994,8.994,0,0,0,.307-2.072c0-.921-.153-2.839-.153-2.839a4.107,4.107,0,0,1,0-1c.077-.307.153-.46.23-.767a1.637,1.637,0,0,0,0-.614c0-.307-.23-.767-.153-1a.986.986,0,0,0,.077-.537,4.491,4.491,0,0,0-.153-1,1.326,1.326,0,0,1,.077-.767,3.826,3.826,0,0,0,.23-.921c0-.537-.077-1.381-.077-1.842a3.08,3.08,0,0,1,.23-1.151,4.658,4.658,0,0,0,.384-1.381,11.692,11.692,0,0,0,0-1.688c-.077-.844-.077-1.535-.537-1.918a2.344,2.344,0,0,0-1.458-.614c-.767-.077-5.908,0-6.6.077-.691,0-5.832-.077-6.369,0s-4.834.153-5.064.153a1.662,1.662,0,0,0-1.611.537,2.517,2.517,0,0,1-2.3.767c-1.381,0-4.68-.153-4.757-.23-.153-.077-.691,0-1.074-.23s-.46-.691-.537-.767c-.077-.153-.307-.46-1.074-.691-.767-.153-1.688-.537-2.148-.153s-.46.614-.46.767a.281.281,0,0,1-.307.307c-.153,0-.921-.767-1.3-.844a7.484,7.484,0,0,0-1.765-.153c-.23.077-.537.307-.767.23a5.652,5.652,0,0,1-1.074-.307,9.846,9.846,0,0,0-2.072-.077c-.154.153-.154.384-.154.921s-.077,3.683-.077,3.683a19.946,19.946,0,0,0,0,2.148,14.382,14.382,0,0,0,.077,1.611,11.357,11.357,0,0,1,.077,2.3v2.532a23.243,23.243,0,0,0,.077,2.609,1.436,1.436,0,0,1,.307.691,3.745,3.745,0,0,1-.23,1.074c0,.153-.154.691-.154,1.074,0,.46.154,2.839.154,3.53,0,.767.153,2.148.153,2.609s.077,3.069,0,3.453a4.239,4.239,0,0,0,.077,1.688,5.512,5.512,0,0,1,.153,1.458c0,.23-.23,1.151-.23,1.535s0,1.3-.307,1.381a24.693,24.693,0,0,1-2.532-.077,40.01,40.01,0,0,1-2.916-7.75,41.09,41.09,0,0,1-1.228-8.517c-.077-2.532-.23-14.2-.23-14.2v-4.3L441,352.079l.23,15.039C441.076,367.349,441.152,372.106,441.076,372.72Z" transform="translate(-385.6 -340.8)" fill="#102851"></path>
                </g>
              </g>
              <g id="XMLID_00000103261545724137281170000009519468781445872542_" transform="translate(22.135 47.726)">
                <g id="Groupe_659" data-name="Groupe 659">
                  <path id="Tracé_10317" data-name="Tracé 10317" d="M419.629,406.53a3.072,3.072,0,0,1,1.3-1,5.914,5.914,0,0,1,2.916-.23,1.858,1.858,0,0,1,1.458,1.688.71.71,0,0,0,.614.691c.537,0,.767-.921.767-.921s1.074-1.841,1.228-2.3a1.1,1.1,0,0,0-.23-1.074c-.23-.384-.767-.384-1.074-.384a2.411,2.411,0,0,0-.921.307,2.606,2.606,0,0,1-1.841.23,16.3,16.3,0,0,0-4.3-.46,7.993,7.993,0,0,0-3.453,1.151,3.4,3.4,0,0,0-1.611,2.3,1.784,1.784,0,0,0,.614,1.765,2.182,2.182,0,0,0-.614,1.765,4.437,4.437,0,0,0,.921,2.762,3.392,3.392,0,0,0,2.072,1.688,12.581,12.581,0,0,0,3.683.153,5.88,5.88,0,0,1,1.535-.23,5.1,5.1,0,0,1,2.148.614c.23.153.537.537,1,.537s.384-.077.921-.537c.46-.46.077-2.072,0-2.379,0-.307-.153-.307-.307-.844a2.551,2.551,0,0,0-.307-1c-.153-.23-.614-.307-1-.307s-.46.307-.614.46c-.077.153-.537.844-.691,1.074a2.6,2.6,0,0,1-1.228.767,2.4,2.4,0,0,1-1.995-.23c-.844-.384-1.074-1.3-1.381-2.225a4.955,4.955,0,0,1-.23-1.995A4.041,4.041,0,0,1,419.629,406.53Zm-.077,6.215a3.305,3.305,0,0,0,3.53.691,3.406,3.406,0,0,0,1.688-1.228l.23-.307s.46-.614.691.23c.23.767.23,1,.384,1.611s.23.767-.077.691a9.212,9.212,0,0,0-2.148-.46c-.767,0-2.762.23-3.53.307-.691.077-2.762.23-3.76-1.228s-1.381-1.995-1.151-3.146a1.671,1.671,0,0,1,.46-1s.46-.384.077-.691a1.477,1.477,0,0,1-.307-1.995A4.368,4.368,0,0,1,419.015,404a20,20,0,0,1,3.76.153,7.882,7.882,0,0,0,2.225.307c.307-.077.921-.384,1.151-.46s.921,0,.767.307-.46.921-.537,1.151-.153.844-.384.767a1.534,1.534,0,0,1-1-.537c-.537-.614-.844-1.228-3.146-1.228a4.092,4.092,0,0,0-3.3,1.381s-1,.844-.921,3.146A6.551,6.551,0,0,0,419.552,412.745Z" transform="translate(-414.448 -403)" fill="#102851"></path>
                </g>
              </g>
              <g id="XMLID_00000095312642956792998690000016872614294610949524_" transform="translate(7.506 2.306)">
                <path id="Tracé_10318" data-name="Tracé 10318" d="M398.772,345.029a.8.8,0,0,1,.844-.691c.691,0,2.762-.077,3.376-.153a11.139,11.139,0,0,0,1.3-.23s.921-.384.767.077-1.151,1.151-1.3,1.228a8.5,8.5,0,0,0-.844,1.228c-.153.23-1.151,1.151-1.228,1.3s-1.151,2.072-1.151,2.072-.153.537-.46.614a27.221,27.221,0,0,0-3.683.384c-.844.307-1.074.384-1,.077a6.446,6.446,0,0,1,.307-1.074c.077-.153.23-.384,1.074-.23a5.3,5.3,0,0,0,2.532-.23c.537-.23,1.3-.921.614-1.381a4.967,4.967,0,0,0-2.3-.384s-.691.077-.384-.614,1.381-.307,1.611-.307a6.035,6.035,0,0,0,1.765.153,3.442,3.442,0,0,0,1.228-.691.574.574,0,0,0-.307-.844,5.552,5.552,0,0,0-2.3.153C398.925,345.643,398.465,345.643,398.772,345.029Z" transform="translate(-395.382 -343.805)" fill="#102851"></path>
              </g>
              <g id="XMLID_00000072280387361781344000000001565300397810963106_" transform="translate(23.309 2.306)">
                <path id="Tracé_10319" data-name="Tracé 10319" d="M419.371,345.029a.8.8,0,0,1,.844-.691c.691,0,2.762-.077,3.376-.153a11.138,11.138,0,0,0,1.3-.23s.921-.384.767.077-1.151,1.151-1.3,1.228a8.49,8.49,0,0,0-.844,1.228c-.153.23-1.151,1.151-1.228,1.3s-1.151,2.072-1.151,2.072-.153.537-.46.614a27.222,27.222,0,0,0-3.683.384c-.921.307-1.074.384-1,.077a6.449,6.449,0,0,1,.307-1.074c.077-.153.23-.384,1.074-.23a5.3,5.3,0,0,0,2.532-.23c.537-.23,1.3-.921.614-1.381a4.966,4.966,0,0,0-2.3-.384s-.691.077-.384-.614,1.381-.307,1.611-.307a6.035,6.035,0,0,0,1.765.153,3.442,3.442,0,0,0,1.228-.691.574.574,0,0,0-.307-.844,5.552,5.552,0,0,0-2.3.153C419.448,345.643,419.064,345.643,419.371,345.029Z" transform="translate(-415.978 -343.805)" fill="#102851"></path>
              </g>
              <g id="XMLID_00000067916386954965132350000013348779821639929989_" transform="translate(39.115 2.229)">
                <path id="Tracé_10320" data-name="Tracé 10320" d="M439.971,344.929a.773.773,0,0,1,.767-.691,25.435,25.435,0,0,0,3.453-.153,11.148,11.148,0,0,0,1.3-.23s.844-.384.767.077c-.153.46-1.151,1.151-1.3,1.228a8.491,8.491,0,0,0-.844,1.228c-.153.23-1.151,1.151-1.228,1.3s-1.151,2.072-1.151,2.072-.153.537-.46.614a27.226,27.226,0,0,0-3.683.384c-.921.384-1.074.384-1,.077a9.782,9.782,0,0,1,.307-1.074c.077-.153.23-.384,1.074-.23a5.3,5.3,0,0,0,2.532-.23c.537-.23,1.3-.921.614-1.381a4.965,4.965,0,0,0-2.3-.384s-.691.077-.384-.614,1.381-.384,1.611-.307a6.036,6.036,0,0,0,1.765.153,3.444,3.444,0,0,0,1.228-.691.574.574,0,0,0-.307-.844,5.552,5.552,0,0,0-2.3.153C440.048,345.466,439.664,345.466,439.971,344.929Z" transform="translate(-436.578 -343.705)" fill="#102851"></path>
              </g>
            </g>
          </g>
        </g>
      </g>
    </g>
    <g id="XMLID_00000016792063767112901780000001828676881701919931_" transform="translate(461.409 351.158)">
      <path id="XMLID_00000096768388792291921320000000125101209228041396_" d="M499.032,356.542c-.46-1.074-.767-1.3-1.535-1.458a3.179,3.179,0,0,0-.767-.077c-.153,0-.23-.077-.23-.153,0-.153.23-.153.537-.153,1.074,0,2.225.077,2.992.077.537,0,1.535-.077,2.532-.077.23,0,.46.077.46.153,0,.153-.153.153-.307.153a1.15,1.15,0,0,0-.767.153.464.464,0,0,0-.23.46,5.671,5.671,0,0,0,.46,1.535l3.53,8.9h.077c.844-2.148,3.529-8.517,3.99-9.821a2.844,2.844,0,0,0,.154-.691.392.392,0,0,0-.307-.384,2.877,2.877,0,0,0-.844-.077c-.153,0-.307,0-.307-.153s.153-.23.537-.23c1.074,0,1.918.077,2.148.077.384,0,1.3-.077,1.918-.077.23,0,.46.077.46.153,0,.153-.153.153-.307.153a1.838,1.838,0,0,0-1,.23c-.23.153-.537.537-1.074,1.765-.767,1.842-1.3,2.916-2.455,5.294-1.3,2.839-2.225,4.987-2.685,5.985-.537,1.151-.614,1.458-.921,1.458s-.384-.23-.767-1.151Z" transform="translate(-487.216 -354.393)" fill="#102851"></path>
      <path id="XMLID_00000028321737384617879900000009819575873781809028_" d="M520.265,360.278v-4.143c-.077-.691-.23-1-.691-1.074a2.365,2.365,0,0,0-.767-.077c-.23,0-.307,0-.307-.23,0-.077.154-.153.537-.153.767,0,2.072.077,2.686.077.537,0,1.688-.077,2.532-.077.23,0,.384.077.384.153,0,.153-.154.23-.307.23a1.689,1.689,0,0,0-.614.077c-.537.077-.691.46-.767,1.151v7.6c0,1.918,0,3.453.077,4.3.077.537.23.921.844,1a5.067,5.067,0,0,0,1.074.077c.23,0,.307.077.307.153,0,.153-.154.153-.384.153-1.3,0-2.609-.077-3.146-.077-.46,0-1.765.077-2.532.077-.307,0-.384-.077-.384-.153s.077-.153.307-.153a2.365,2.365,0,0,0,.767-.077c.384-.077.537-.384.614-1,.077-.844.077-2.379.077-4.3v-3.53Z" transform="translate(-492.335 -354.37)" fill="#102851"></path>
      <path id="XMLID_00000114075705409365015810000011861980621047189399_" d="M534.127,363.731c0,2.532,0,3.836.46,4.22.307.307.844.46,2.455.46,1.074,0,1.841,0,2.379-.537a3.888,3.888,0,0,0,.537-1.151c0-.153.077-.307.23-.307s.153.077.153.307a15.107,15.107,0,0,1-.307,2.225c-.153.46-.23.537-1.3.537-1.458,0-2.532,0-3.453-.077-.921,0-1.611-.077-2.455-.077h-2.532c-.23,0-.384-.077-.384-.153s.077-.153.307-.153a1.7,1.7,0,0,0,.691-.077c.384-.077.537-.537.614-1.074.077-.844.077-2.379.077-4.22v-3.376a38.672,38.672,0,0,0-.077-4.143c0-.691-.23-1-.844-1.151-.154,0-.384-.077-.691-.077-.23,0-.384,0-.384-.153s.153-.153.46-.153c1,0,2.225.077,2.762.077.46,0,2-.077,2.762-.077.307,0,.46.077.46.153,0,.153-.153.153-.384.153a2.609,2.609,0,0,0-.767.077c-.537.077-.691.46-.767,1.151a38.672,38.672,0,0,0-.077,4.143v3.453Z" transform="translate(-494.918 -354.37)" fill="#102851"></path>
      <path id="XMLID_00000076567195157102154050000016012988411534776749_" d="M549.6,363.731c0,2.532,0,3.836.384,4.22.384.307.844.46,2.455.46,1.074,0,1.842,0,2.379-.537a3.885,3.885,0,0,0,.537-1.151c0-.153.077-.307.23-.307s.154.077.154.307a15.129,15.129,0,0,1-.307,2.225c-.154.46-.23.537-1.3.537-1.458,0-2.532,0-3.453-.077-.921,0-1.611-.077-2.455-.077H545.69c-.307,0-.384-.077-.384-.153s.077-.153.307-.153a2.366,2.366,0,0,0,.767-.077c.384-.077.537-.537.614-1.074.077-.844.077-2.379.077-4.22v-3.376a38.672,38.672,0,0,0-.077-4.143.992.992,0,0,0-.921-1.151c-.154,0-.384-.077-.691-.077-.23,0-.384,0-.384-.153s.153-.153.46-.153c.921,0,2.225.077,2.762.077.46,0,2-.077,2.762-.077.307,0,.46.077.46.153,0,.153-.077.153-.384.153a2.61,2.61,0,0,0-.767.077c-.537.077-.691.46-.767,1.151v7.6Z" transform="translate(-498.502 -354.37)" fill="#102851"></path>
      <path id="XMLID_00000024724570277366329200000012051932725345006781_" d="M562.372,360.208a38.7,38.7,0,0,0-.077-4.143c-.077-.691-.23-1-.844-1.151-.153,0-.537-.077-.767-.077s-.384,0-.384-.154.154-.153.46-.153h7.98a5.725,5.725,0,0,0,.844-.153c.153,0,.23-.077.384-.077.077,0,.077.077.077.153,0,.153-.077.384-.153,1.3,0,.23-.077,1.074-.077,1.3a.245.245,0,0,1-.23.23c-.153,0-.153-.077-.153-.307a1.261,1.261,0,0,0-.154-.691c-.153-.384-.384-.537-1.381-.691-.307-.077-2.455-.077-2.916-.077a.165.165,0,0,0-.154.153v4.987c0,.153,0,.23.154.23.46,0,2.762,0,3.3-.077.46-.077.767-.077,1-.307.154-.153.23-.23.307-.23s.153,0,.153.153-.077.46-.153,1.458c0,.384-.077,1.228-.077,1.3,0,.153,0,.384-.153.384s-.23-.077-.23-.153a2.367,2.367,0,0,0-.077-.691c-.077-.384-.384-.691-1.151-.767-.384,0-2.379-.077-2.916-.077-.077,0-.154.077-.154.23v4.6c0,1.381.384,1.611,2.455,1.611a5.486,5.486,0,0,0,1.918-.23c.537-.23.767-.614.921-1.458.077-.23.077-.307.23-.307s.154.153.154.384a9.674,9.674,0,0,1-.307,2.148c-.154.537-.307.537-1.151.537-1.535,0-2.609,0-3.53-.077-.844,0-1.535-.077-2.148-.077h-2.532c-.307,0-.384-.077-.384-.153s.077-.153.307-.153a2.365,2.365,0,0,0,.767-.077c.384-.077.537-.537.614-1.074.077-.844.077-2.379.077-4.22v-3.376Z" transform="translate(-502.062 -354.3)" fill="#102851"></path>
      <path id="XMLID_00000101089416909209988280000017853375470521281413_" d="M585.9,360.278v-4.143c-.077-.691-.23-1-.921-1.151-.153,0-.537-.077-.767-.077s-.307,0-.307-.153.154-.153.46-.153c1.074,0,2.379.077,2.916.077.614,0,1.918-.077,3.146-.077,2.532,0,5.985,0,8.21,2.225a7.144,7.144,0,0,1,1.995,4.987,7.491,7.491,0,0,1-2.225,5.448c-.921.921-3.069,2.3-6.829,2.3-.767,0-1.611-.077-2.379-.153a19.445,19.445,0,0,0-1.995-.077h-2.609c-.23,0-.384-.077-.384-.153s.077-.153.307-.153a2.366,2.366,0,0,0,.767-.077c.384-.077.537-.537.614-1.074.077-.844.077-2.379.077-4.22v-3.376Zm2.532,2.148c0,2.072,0,3.606.077,3.99a4.311,4.311,0,0,0,.23,1.535c.307.384,1.074.767,2.685.767a6.823,6.823,0,0,0,4.68-1.381c1.3-1.074,1.688-2.916,1.688-4.911a6.536,6.536,0,0,0-1.995-4.911,8.357,8.357,0,0,0-5.755-1.918,5.51,5.51,0,0,0-1.3.153.355.355,0,0,0-.23.384v6.292Z" transform="translate(-507.554 -354.37)" fill="#102851"></path>
      <path id="XMLID_00000034789714013660992740000001002125785609697689_" d="M609.772,360.208v-4.143c-.077-.691-.23-1-.844-1.151-.154,0-.537-.077-.844-.077-.23,0-.384,0-.384-.154s.154-.153.46-.153h7.98a5.724,5.724,0,0,0,.844-.153c.077,0,.23-.077.307-.077a.165.165,0,0,1,.153.153c0,.153-.077.384-.153,1.3,0,.23-.077,1.074-.077,1.3a.245.245,0,0,1-.23.23c-.154,0-.23-.077-.23-.307a2.367,2.367,0,0,0-.077-.691c-.153-.384-.384-.537-1.381-.691-.384-.077-2.532-.077-2.916-.077a.165.165,0,0,0-.154.153v4.987c0,.153,0,.23.154.23.46,0,2.762,0,3.223-.077.537-.077.767-.077,1-.307.153-.153.23-.23.307-.23s.153,0,.153.153-.077.46-.153,1.458c0,.384-.077,1.228-.077,1.3,0,.153,0,.384-.153.384s-.153-.077-.153-.153a2.367,2.367,0,0,0-.077-.691c-.077-.384-.384-.691-1.151-.767-.384,0-2.455-.077-2.916-.077-.077,0-.077.077-.077.23v4.6c.077,1.381.384,1.611,2.455,1.611a5.486,5.486,0,0,0,1.918-.23c.537-.23.767-.614.921-1.458.077-.23.077-.307.23-.307s.154.153.154.384a18.431,18.431,0,0,1-.23,2.148c-.153.537-.307.537-1.074.537-1.535,0-2.686,0-3.529-.077-.844,0-1.535-.077-2.148-.077h-2.532c-.307,0-.46-.077-.46-.153s.077-.153.307-.153a2.365,2.365,0,0,0,.767-.077c.384-.077.537-.537.537-1.074.077-.844.077-2.379.077-4.22v-3.376Z" transform="translate(-513.092 -354.3)" fill="#102851"></path>
      <path id="XMLID_00000062175600043353596040000013204596080531245953_" d="M488.85,406.872a12.627,12.627,0,0,1-4.45-10.128,12.871,12.871,0,0,1,4.143-9.438c2.532-2.3,5.985-3.606,11.279-3.606a46.268,46.268,0,0,1,5.141.307c1.3.153,2.455.46,3.53.614.384.077.537.23.537.46s-.154.691-.23,1.918c-.077,1.074,0,2.992-.077,3.683,0,.537-.077.767-.46.767-.307,0-.307-.23-.307-.767a5.1,5.1,0,0,0-1.381-3.146c-1.151-1.151-3.99-2.148-7.289-2.148-3.069,0-5.141.767-6.676,2.148-2.609,2.3-3.3,5.6-3.3,8.9,0,8.21,6.445,12.277,11.279,12.277,3.146,0,5.064-.384,6.522-1.918a4.375,4.375,0,0,0,1.151-2.3c.154-.537.23-.691.46-.691.307,0,.307.23.307.537a31.809,31.809,0,0,1-.844,4.6,1.224,1.224,0,0,1-.921,1,22.124,22.124,0,0,1-6.445.767C496.14,410.632,492.073,409.635,488.85,406.872Z" transform="translate(-484.4 -361.141)" fill="#102851"></path>
      <path id="XMLID_00000002379303634621440620000010919561898840734368_" d="M524.406,394.275c0-5.218,0-6.215-.077-7.289-.077-1.228-.384-1.765-1.535-1.995a7.461,7.461,0,0,0-1.381-.077c-.384,0-.614-.077-.614-.307s.23-.307.767-.307c1.918,0,4.143.153,4.911.153,1.228,0,3.913-.153,5.064-.153a12.271,12.271,0,0,1,6.6,1.458,5.919,5.919,0,0,1,2.379,4.757c0,2.532-1.074,4.834-4.681,7.673,3.146,3.836,5.678,6.906,7.75,9.054,1.995,1.995,3.453,2.225,3.99,2.3a5.281,5.281,0,0,0,1,.153c.307,0,.46.077.46.307,0,.307-.23.384-.691.384h-3.453a7.893,7.893,0,0,1-3.836-.614c-1.535-.844-2.839-2.379-4.911-5.064-1.458-1.918-3.069-4.22-3.53-4.757a.833.833,0,0,0-.691-.307h-3.069c-.153,0-.307,0-.307.23v.46c0,3.223,0,5.908.154,7.366.077,1,.307,1.765,1.381,1.918a14.976,14.976,0,0,0,1.765.153c.307,0,.46.077.46.307s-.23.384-.767.384c-2.072,0-4.68-.153-5.218-.153-.691,0-2.916.153-4.374.153-.46,0-.691-.153-.691-.384,0-.153.153-.307.537-.307a6.083,6.083,0,0,0,1.3-.153c.691-.153.921-.921,1.074-1.918.153-1.458.153-4.143.153-7.366v-6.062Zm4.22,2.686c0,.384.077.537.307.614a10.319,10.319,0,0,0,2.686.384,3.486,3.486,0,0,0,2.532-.614c1.074-.767,2.072-2.379,2.072-5.141,0-4.834-3.3-6.292-5.448-6.292a9.93,9.93,0,0,0-1.918.153.421.421,0,0,0-.307.46V396.96Z" transform="translate(-492.87 -361.281)" fill="#102851"></path>
      <path id="XMLID_00000156573615168349676840000008796882272573357200_" d="M558.306,394.228c0-5.218,0-6.215-.077-7.289-.077-1.228-.384-1.765-1.535-2a6.649,6.649,0,0,0-1.381-.077c-.384,0-.614-.077-.614-.307s.23-.307.767-.307c1,0,1.995.077,2.916.077s1.765.077,2.225.077h8.9a13.649,13.649,0,0,0,1.535-.23c.154,0,.384-.077.614-.077.154,0,.23.077.23.307s-.154.691-.307,2.225c0,.307-.077,1.842-.153,2.225-.077.153-.077.384-.384.384-.23,0-.384-.153-.384-.46a3.814,3.814,0,0,0-.153-1.228c-.23-.614-.614-1.074-2.379-1.228-.614-.077-4.374-.154-5.064-.154-.154,0-.23.077-.23.307v8.747c0,.23,0,.384.23.384.767,0,4.911,0,5.755-.077a2.339,2.339,0,0,0,1.688-.46c.23-.307.384-.46.614-.46.153,0,.23.077.23.307s-.153.767-.307,2.532c-.077.691-.153,2.072-.153,2.3,0,.307,0,.691-.307.691s-.307-.153-.307-.307a3.378,3.378,0,0,0-.154-1.228c-.154-.691-.691-1.228-1.995-1.3-.691-.077-4.22-.077-5.064-.077-.23,0-.23.153-.23.307V400.6c0,1.151-.077,4.3,0,5.294.077,2.379.614,2.916,4.3,2.916a10.168,10.168,0,0,0,3.376-.384,2.965,2.965,0,0,0,1.611-2.532c.077-.384.154-.537.384-.537.307,0,.307.307.307.614a30.843,30.843,0,0,1-.46,3.836c-.23.844-.614.844-1.918.844-2.686,0-4.681-.077-6.215-.077-1.535-.077-2.609-.153-3.683-.153-.384,0-1.151.077-1.995.077s-1.765.077-2.455.077c-.46,0-.691-.153-.691-.384,0-.153.154-.307.537-.307a6.086,6.086,0,0,0,1.3-.153c.691-.153.921-.921,1.074-1.918.153-1.458.153-4.143.153-7.366v-6.215Z" transform="translate(-500.759 -361.235)" fill="#102851"></path>
      <path id="XMLID_00000178164328752085790180000001022511735817550512_" d="M584.891,409.788c-.537-.23-.691-.384-.691-1.151a44.261,44.261,0,0,1,.23-4.527c0-.537.153-.921.46-.921s.384.307.384.614a8.54,8.54,0,0,0,.307,1.765c.767,2.532,2.916,3.453,5.141,3.453,3.223,0,4.757-2.072,4.757-3.913,0-1.688-.537-3.3-3.53-5.525l-1.611-1.228c-3.913-2.992-5.294-5.371-5.294-8.133,0-3.76,3.3-6.522,8.21-6.522a19.1,19.1,0,0,1,4.757.537c.307.077.46.153.46.384,0,.46-.153,1.458-.153,4.143,0,.767-.077,1.074-.384,1.074-.23,0-.384-.23-.384-.614a4.05,4.05,0,0,0-.921-2.3,4.653,4.653,0,0,0-3.913-1.688c-2.685,0-4.22,1.458-4.22,3.53,0,1.611.844,2.762,3.76,4.987l1,.691c4.3,3.223,5.831,5.525,5.831,8.747a6.8,6.8,0,0,1-3.376,5.985,10.739,10.739,0,0,1-5.678,1.381A12.1,12.1,0,0,1,584.891,409.788Z" transform="translate(-507.624 -361.141)" fill="#102851"></path>
      <path id="XMLID_00000025405160345685559180000003475490064761126070_" d="M616.652,386.079l-5.294.153c-2.072.077-2.916.23-3.453,1a3.565,3.565,0,0,0-.614,1.228c-.077.307-.154.384-.384.384s-.307-.153-.307-.537c0-.537.691-3.683.767-3.99.077-.46.23-.614.46-.614a10.274,10.274,0,0,0,1.535.384c1.074.077,2.379.153,3.606.153h14.118c1.151,0,1.918-.153,2.455-.153.537-.077.767-.153.921-.153.23,0,.307.23.307.691,0,.691-.077,3.069-.077,3.99,0,.307-.077.537-.307.537-.307,0-.384-.154-.384-.691l-.077-.384c-.077-.921-1-1.841-4.22-1.918l-4.527-.077V400.2a62.192,62.192,0,0,0,.23,7.366c.077,1,.307,1.765,1.381,1.918a13.745,13.745,0,0,0,1.841.153c.384,0,.614.077.614.307s-.307.384-.691.384c-2.379,0-4.6-.153-5.6-.153-.844,0-3.069.153-4.45.153-.537,0-.767-.153-.767-.384,0-.153.154-.307.614-.307a6.087,6.087,0,0,0,1.3-.153c.691-.153.921-.921,1.074-1.918.153-1.458.153-4.143.153-7.366V386.079Z" transform="translate(-512.836 -361.141)" fill="#102851"></path>
    </g>
  </g>
</svg>
